<svg width="1280" height="640" viewBox="0 0 1280 640" fill="none" xmlns="http://www.w3.org/2000/svg" role="img" aria-labelledby="title desc">
  <title id="title">Temis — deterministische DMN-Engine, erreichbar als Go-Library, per REST, gRPC und MCP</title>
  <desc id="desc">Dieselbe Temis-Engine ist über vier Zugänge erreichbar: als eingebettete Go-Library, per REST, per gRPC und per MCP für AI-Agenten. Im Zentrum wertet eine DMN-1.5-Decision-Table mit Hit Policy U deterministisch aus; rechts entstehen eine typisierte Entscheidung, die gefeuerte Regel und ein Explain-Trace.</desc>
  <defs>
    <linearGradient id="bg" x1="0" y1="0" x2="1280" y2="640" gradientUnits="userSpaceOnUse">
      <stop stop-color="#080D1C"/>
      <stop offset="0.5" stop-color="#111E45"/>
      <stop offset="1" stop-color="#3B1470"/>
    </linearGradient>
    <radialGradient id="glowA" cx="0" cy="0" r="1" gradientUnits="userSpaceOnUse" gradientTransform="translate(250 250) rotate(38) scale(430 300)">
      <stop stop-color="#22D3EE" stop-opacity="0.5"/>
      <stop offset="1" stop-color="#22D3EE" stop-opacity="0"/>
    </radialGradient>
    <radialGradient id="glowB" cx="0" cy="0" r="1" gradientUnits="userSpaceOnUse" gradientTransform="translate(1060 420) rotate(140) scale(460 320)">
      <stop stop-color="#F472B6" stop-opacity="0.42"/>
      <stop offset="1" stop-color="#F472B6" stop-opacity="0"/>
    </radialGradient>
    <linearGradient id="engine" x1="440" y1="150" x2="840" y2="490" gradientUnits="userSpaceOnUse">
      <stop stop-color="#22D3EE"/>
      <stop offset="0.52" stop-color="#8B5CF6"/>
      <stop offset="1" stop-color="#F59E0B"/>
    </linearGradient>
    <linearGradient id="card" x1="380" y1="110" x2="900" y2="530" gradientUnits="userSpaceOnUse">
      <stop stop-color="#FFFFFF" stop-opacity="0.16"/>
      <stop offset="1" stop-color="#FFFFFF" stop-opacity="0.05"/>
    </linearGradient>
    <linearGradient id="span" x1="84" y1="0" x2="1196" y2="0" gradientUnits="userSpaceOnUse">
      <stop stop-color="#00ADD8"/>
      <stop offset="0.34" stop-color="#34D399"/>
      <stop offset="0.66" stop-color="#8B5CF6"/>
      <stop offset="1" stop-color="#F59E0B"/>
    </linearGradient>
    <filter id="shadow" x="-25%" y="-25%" width="150%" height="160%" color-interpolation-filters="sRGB">
      <feDropShadow dx="0" dy="16" stdDeviation="22" flood-color="#020617" flood-opacity="0.45"/>
    </filter>
    <filter id="soft" x="-40%" y="-40%" width="180%" height="180%" color-interpolation-filters="sRGB">
      <feGaussianBlur stdDeviation="5"/>
    </filter>
    <style>
      .label{font-family:Inter, ui-sans-serif, system-ui, -apple-system, BlinkMacSystemFont, "Segoe UI", sans-serif; fill:#E9F7FF; font-weight:700; letter-spacing:.02em}
      .small{font-size:22px}.tiny{font-size:15px}.micro{font-size:12.5px; fill:#BFE9FF; font-weight:600}
      .mono{font-family:"SFMono-Regular",Consolas,"Liberation Mono",monospace; font-weight:700}
      .cell{font-family:"SFMono-Regular",Consolas,"Liberation Mono",monospace; fill:#CBD5E1; font-weight:600; font-size:15px}
      .chip{font-family:Inter, ui-sans-serif, sans-serif; font-weight:700; font-size:13px; fill:#0B1120}
      .flow{stroke:#7DD3FC; stroke-width:4; stroke-linecap:round; stroke-dasharray:10 14; opacity:.85}
    </style>
  </defs>

  <rect width="1280" height="640" rx="34" fill="url(#bg)"/>
  <rect width="1280" height="640" rx="34" fill="url(#glowA)"/>
  <rect width="1280" height="640" rx="34" fill="url(#glowB)"/>

  <g opacity="0.16" stroke="#93C5FD" stroke-width="1.5">
    <path d="M60 108 H1220" stroke-dasharray="2 22"/>
    <path d="M60 528 H1220" stroke-dasharray="2 22"/>
  </g>

  <!-- access flows: surfaces -> engine -->
  <path class="flow" d="M260 183 C322 176 366 202 416 238"/>
  <path class="flow" d="M260 271 C330 268 372 282 416 300"/>
  <path class="flow" d="M260 359 C330 358 372 352 416 344"/>
  <path class="flow" d="M260 447 C330 452 372 432 416 402"/>

  <!-- four access surfaces: Go-Library · REST · gRPC · MCP/AI-Agent -->
  <g filter="url(#shadow)" transform="translate(52 148)">
    <rect width="208" height="70" rx="18" fill="#0F172A" stroke="#00ADD8" stroke-width="2"/>
    <circle cx="38" cy="35" r="16" fill="#00ADD8"/>
    <path d="M38 26l9 4-9 4-9-4 9-4Z" fill="white"/><path d="M29 30v9l9 4v-9" fill="white" opacity="0.85"/><path d="M47 30v9l-9 4v-9" fill="white" opacity="0.55"/>
    <text x="64" y="31" class="label tiny">Go-Library</text>
    <text x="64" y="53" class="micro">in-process · embeddable</text>
  </g>
  <g filter="url(#shadow)" transform="translate(52 236)">
    <rect width="208" height="70" rx="18" fill="#0F172A" stroke="#34D399" stroke-width="2"/>
    <circle cx="38" cy="35" r="16" fill="#10B981"/>
    <circle cx="38" cy="35" r="10" stroke="white" stroke-width="2" fill="none"/><path d="M28 35h20" stroke="white" stroke-width="1.8"/><ellipse cx="38" cy="35" rx="4.4" ry="10" stroke="white" stroke-width="1.6" fill="none"/>
    <text x="64" y="31" class="label tiny">REST-API</text>
    <text x="64" y="53" class="mono" font-size="13" fill="#A7F3D0">POST /v1/evaluate</text>
  </g>
  <g filter="url(#shadow)" transform="translate(52 324)">
    <rect width="208" height="70" rx="18" fill="#0F172A" stroke="#A78BFA" stroke-width="2"/>
    <circle cx="38" cy="35" r="16" fill="#8B5CF6"/>
    <g stroke="white" stroke-width="2.4" stroke-linecap="round" stroke-linejoin="round" fill="none"><path d="M29 31h16M41 27l4 4-4 4"/><path d="M47 39H31M35 43l-4-4 4-4"/></g>
    <text x="64" y="31" class="label tiny">gRPC</text>
    <text x="64" y="53" class="mono" font-size="13" fill="#C4B5FD">rpc Evaluate()</text>
  </g>
  <g filter="url(#shadow)" transform="translate(52 412)">
    <rect width="208" height="70" rx="18" fill="#0F172A" stroke="#F59E0B" stroke-width="2"/>
    <circle cx="38" cy="35" r="16" fill="#F59E0B"/>
    <rect x="29" y="30" width="18" height="14" rx="3.5" stroke="#0B1120" stroke-width="2" fill="none"/><circle cx="34" cy="37" r="1.7" fill="#0B1120"/><circle cx="42" cy="37" r="1.7" fill="#0B1120"/><path d="M38 25v5" stroke="#0B1120" stroke-width="2"/><circle cx="38" cy="24" r="1.7" fill="#0B1120"/>
    <text x="64" y="31" class="label tiny">MCP · AI-Agent</text>
    <text x="64" y="53" class="micro">stdio · HTTP · Tools</text>
  </g>

  <!-- engine: DMN decision table + hit policy -->
  <g filter="url(#shadow)">
    <rect x="360" y="98" width="540" height="436" rx="44" fill="url(#card)" stroke="white" stroke-opacity="0.22" stroke-width="2"/>
    <rect x="404" y="140" width="452" height="352" rx="34" fill="#07111F" stroke="url(#engine)" stroke-width="4"/>
    <circle cx="630" cy="320" r="120" fill="url(#engine)" opacity="0.14" filter="url(#soft)"/>

    <text x="630" y="182" text-anchor="middle" class="label small">temis engine</text>

    <!-- capability chips -->
    <g>
      <rect x="497" y="196" width="80" height="24" rx="12" fill="#22D3EE"/><text x="537" y="212" text-anchor="middle" class="chip">DMN 1.5</text>
      <rect x="585" y="196" width="60" height="24" rx="12" fill="#8B5CF6"/><text x="615" y="212" text-anchor="middle" class="chip" fill="#F5F3FF">FEEL</text>
      <rect x="653" y="196" width="86" height="24" rx="12" fill="#F59E0B"/><text x="696" y="212" text-anchor="middle" class="chip">Decimal</text>
    </g>

    <!-- decision table -->
    <g>
      <rect x="470" y="238" width="320" height="152" rx="10" fill="#0B1220" stroke="#334155" stroke-width="1.5"/>
      <rect x="700" y="238" width="90" height="152" fill="#F59E0B" opacity="0.07"/>
      <rect x="470" y="276" width="320" height="38" fill="#22C55E" opacity="0.16"/>
      <rect x="470.75" y="276.75" width="318.5" height="36.5" rx="3" fill="none" stroke="#22C55E" stroke-width="1.5" opacity="0.9"/>
      <g stroke="#1E293B" stroke-width="1.5">
        <path d="M470 276H790M470 314H790M470 352H790"/>
        <path d="M508 238V390M610 238V390M700 238V390"/>
      </g>
      <rect x="470" y="238" width="320" height="38" fill="#111C33"/>
      <text x="489" y="263" text-anchor="middle" class="mono" font-size="15" fill="#FBBF24">U</text>
      <text x="559" y="263" text-anchor="middle" class="cell" fill="#93C5FD">Bonität</text>
      <text x="655" y="263" text-anchor="middle" class="cell" fill="#93C5FD">Betrag</text>
      <text x="745" y="263" text-anchor="middle" class="cell" fill="#FCD34D">Limit</text>
      <text x="489" y="301" text-anchor="middle" class="cell" fill="#86EFAC">1</text>
      <text x="559" y="301" text-anchor="middle" class="cell" fill="#E2E8F0">≥ 700</text>
      <text x="655" y="301" text-anchor="middle" class="cell" fill="#E2E8F0">≤ 5.000</text>
      <text x="745" y="301" text-anchor="middle" class="cell" fill="#86EFAC" font-weight="700">5.000</text>
      <text x="489" y="339" text-anchor="middle" class="cell">2</text>
      <text x="559" y="339" text-anchor="middle" class="cell">≥ 700</text>
      <text x="655" y="339" text-anchor="middle" class="cell">&gt; 5.000</text>
      <text x="745" y="339" text-anchor="middle" class="cell" fill="#CBD5E1">manuell</text>
      <text x="489" y="377" text-anchor="middle" class="cell">3</text>
      <text x="559" y="377" text-anchor="middle" class="cell">&lt; 700</text>
      <text x="655" y="377" text-anchor="middle" class="cell">–</text>
      <text x="745" y="377" text-anchor="middle" class="cell" fill="#CBD5E1">0</text>
    </g>

    <text x="630" y="430" text-anchor="middle" class="mono" font-size="15" fill="#D9F99D">compile → evaluate</text>
    <text x="630" y="458" text-anchor="middle" class="micro" fill="#7DD3FC">Lexer · Parser · Compiler — deterministisch, decimal-genau</text>
  </g>

  <!-- output flow: engine -> decisions -->
  <path class="flow" d="M900 250 C955 205 1000 198 1028 208"/>
  <path class="flow" d="M900 322 C958 320 1002 322 1028 322"/>
  <path class="flow" d="M900 396 C956 452 1004 450 1028 430"/>

  <!-- outputs: typed decision, fired rule, explain trace -->
  <g filter="url(#shadow)" transform="translate(1028 156)">
    <rect width="196" height="80" rx="20" fill="#052E2B" stroke="#34D399" stroke-width="2"/>
    <text x="98" y="34" text-anchor="middle" class="label tiny">Entscheidung</text>
    <text x="98" y="58" text-anchor="middle" class="mono" font-size="16" fill="#A7F3D0">limit = 5.000</text>
  </g>
  <g filter="url(#shadow)" transform="translate(1028 286)">
    <rect width="196" height="80" rx="20" fill="#131A2E" stroke="#FBBF24" stroke-width="2"/>
    <text x="98" y="34" text-anchor="middle" class="label tiny">Hit Policy U</text>
    <text x="98" y="58" text-anchor="middle" class="mono" font-size="15" fill="#FCD34D">Regel #1 gefeuert</text>
  </g>
  <g filter="url(#shadow)" transform="translate(1028 414)">
    <rect width="196" height="82" rx="20" fill="#1E1B4B" stroke="#C084FC" stroke-width="2"/>
    <text x="98" y="34" text-anchor="middle" class="label tiny">Explain-Trace</text>
    <text x="98" y="58" text-anchor="middle" class="micro" fill="#DDD6FE">warum diese Regel · MCP</text>
  </g>

  <!-- access ribbon: vier Zugänge -> eine Entscheidung -->
  <path d="M84 566 H1196" stroke="url(#span)" stroke-width="3" stroke-linecap="round" opacity="0.85"/>
  <circle cx="84" cy="566" r="5" fill="#00ADD8"/><circle cx="1196" cy="566" r="5" fill="#F59E0B"/>
  <text x="80" y="600" class="label" font-size="26" fill="#7DD3FC">Library · REST · gRPC · MCP</text>
  <text x="1200" y="600" text-anchor="end" class="label" font-size="26" fill="#FCD34D">eine Entscheidung</text>
</svg>
